<?xml version="1.0" encoding="utf-8"?>
<svg viewBox="0 0 256 256" xmlns="http://www.w3.org/2000/svg">
  <rect width="256" height="256" style="paint-order: fill; fill: rgb(20, 51, 93); stroke-width: 0px;" fill="none" fill-rule="evenodd" transform="matrix(1, 0, 0, 1, 3.552713678800501e-15, 0)">
    <title>background</title>
  </rect>
  <path style="fill: rgb(115, 234, 239);" d="M 85.567 54.362 C 85.567 57.458 83.055 59.97 79.96 59.97 C 64.478 59.97 51.924 72.524 51.924 88.006 C 51.924 92.323 47.253 95.02 43.513 92.862 C 41.779 91.858 40.708 90.007 40.708 88.006 C 40.708 72.524 28.16 59.97 12.672 59.97 C 8.355 59.97 5.658 55.299 7.816 51.557 C 8.82 49.825 10.671 48.754 12.672 48.754 C 28.16 48.754 40.708 36.2 40.708 20.718 C 40.708 16.4 45.379 13.704 49.121 15.863 C 50.857 16.866 51.924 18.716 51.924 20.718 C 51.924 36.2 64.478 48.754 79.96 48.754 C 83.055 48.754 85.567 51.267 85.567 54.362 Z" transform="matrix(1, 0, 0, 1, 3.552713678800501e-15, 0)">
    <title>sparkle-big</title>
  </path>
  <path style="fill: rgb(115, 234, 239);" d="M 236 211.665 C 236 213.28 234.689 214.59 233.075 214.59 C 224.999 214.59 218.45 221.139 218.45 229.214 C 218.45 231.466 216.014 232.873 214.063 231.747 C 213.159 231.224 212.601 230.258 212.601 229.214 C 212.601 221.139 206.055 214.59 197.977 214.59 C 195.725 214.59 194.318 212.154 195.444 210.203 C 195.967 209.299 196.933 208.741 197.977 208.741 C 206.055 208.741 212.601 202.192 212.601 194.116 C 212.601 191.864 215.037 190.458 216.988 191.584 C 217.895 192.107 218.45 193.072 218.45 194.116 C 218.45 202.192 224.999 208.741 233.075 208.741 C 234.689 208.741 236 210.051 236 211.665 Z" transform="matrix(1, 0, 0, 1, 3.552713678800501e-15, 0)">
    <title>sparkle-small</title>
  </path>
  <path class="st1" d="M 168.602 82.12 C 162.428 82.12 158.061 84.831 154.146 90.553 L 142.551 107.268 L 142.551 59.684 L 114.843 59.684 L 114.843 107.268 L 103.248 90.553 C 99.183 84.831 94.816 82.12 88.792 82.12 C 79.607 82.12 73.433 88.897 73.433 97.329 C 73.433 104.557 76.746 109.225 83.974 113.743 L 128.848 142.655 L 173.721 113.743 C 180.799 109.075 184.262 104.407 184.262 97.329 C 184.112 89.047 177.938 82.12 168.602 82.12 Z" style="fill: rgb(115, 234, 239);" transform="matrix(1, 0, 0, 1, 3.552713678800501e-15, 0)">
    <title>instacart-leaf</title>
  </path>
  <path class="st2" d="M 128.697 149.732 C 155.35 149.732 177.185 169.609 177.185 198.22 L 80.209 198.22 C 80.209 169.609 102.044 149.732 128.697 149.732 Z" style="fill: rgb(115, 234, 239);" transform="matrix(1, 0, 0, 1, 3.552713678800501e-15, 0)">
    <title>instacart-stem</title>
  </path>
</svg>